# Blender 3.3.1
# www.blender.org
mtllib Tree6.mtl
o Icosphere.031
v 3.436378 1.321231 4.347629
v 4.085361 1.824904 5.042334
v 3.085375 1.824904 5.367254
v 2.467335 1.824904 4.516614
v 3.085375 1.824904 3.665974
v 4.085361 1.824904 3.990894
v 3.638145 2.801763 5.367254
v 2.939779 2.691555 4.871751
v 2.638160 2.801763 3.990894
v 3.638145 2.801763 3.665974
v 4.256186 2.801763 4.516614
v 3.565936 4.020720 4.454576
v 3.741407 4.079794 4.248397
v 3.542382 4.068364 4.022401
v 3.327830 4.008146 4.146876
v 3.354361 3.984662 4.367879
v 2.959980 3.223662 4.757716
v 3.624167 3.206535 4.995913
v 2.950323 3.216411 4.056785
v 3.626613 3.186165 3.804224
v 4.081701 3.174164 4.415111
vn 0.1560 -0.8632 0.4801
vn 0.6131 -0.7900 -0.0000
vn -0.4007 -0.8687 0.2912
vn -0.4794 -0.8055 -0.3483
vn 0.2108 -0.7312 -0.6488
vn 0.9851 -0.1723 -0.0000
vn 0.3044 -0.1723 0.9368
vn -0.7933 0.1963 0.5764
vn -0.7969 -0.1722 -0.5790
vn 0.3044 -0.1723 -0.9368
vn 0.7969 0.1722 0.5790
vn -0.5805 0.3285 0.7451
vn -0.8768 0.3376 0.3425
vn -0.3044 0.1723 -0.9368
vn 0.7969 0.1722 -0.5790
vn 0.7719 0.2007 -0.6032
vn -0.8913 0.4514 0.0429
vn -0.3857 0.2320 -0.8930
vn 0.7063 0.4032 0.5818
vn -0.2017 0.9720 0.1203
vn -0.3046 0.5320 0.7900
vn -0.4536 0.4123 0.7901
vn 0.7040 0.4859 0.5180
vn -0.3007 0.3407 -0.8908
vn -0.9207 0.3335 0.2029
vn 0.7869 0.2214 -0.5760
vt 0.181819 0.000000
vt 0.363637 0.000000
vt 0.909091 0.000000
vt 0.727273 0.000000
vt 0.545455 0.000000
vt 0.272728 0.157461
vt 1.000000 0.157461
vt 0.090910 0.157461
vt 0.818182 0.157461
vt 0.636364 0.157461
vt 0.454546 0.157461
vt 0.181819 0.314921
vt 0.000000 0.314921
vt 0.909091 0.314921
vt 0.727273 0.314921
vt 0.545455 0.314921
vt 0.363637 0.314921
vt 0.238727 0.413489
vt 0.124911 0.413489
vt 0.411999 0.398688
vt 0.315275 0.398688
vt 0.596985 0.404175
vt 0.493925 0.404175
vt 0.786788 0.418005
vt 0.667758 0.418005
vt 0.847662 0.421320
vt 0.061430 0.421320
vt 0.030715 0.368121
vt 0.878377 0.368121
vt 0.153365 0.364205
vt 0.210273 0.364205
vt 0.697516 0.366463
vt 0.757030 0.366463
vt 0.571220 0.359548
vt 0.519690 0.359548
vt 0.339456 0.356804
vt 0.387818 0.356804
s 0
usemtl LP_wood.004
f 1/1/1 2/6/1 3/8/1
f 2/6/2 1/2/2 6/11/2
f 1/3/3 3/7/3 4/9/3
f 1/4/4 4/9/4 5/10/4
f 1/5/5 5/10/5 6/11/5
f 2/6/6 6/11/6 11/17/6
f 3/8/7 2/6/7 7/12/7
f 4/9/8 3/7/8 8/14/8
f 5/10/9 4/9/9 9/15/9
f 6/11/10 5/10/10 10/16/10
f 2/6/11 11/17/11 7/12/11
f 3/8/12 7/12/12 8/13/12
f 4/9/13 8/14/13 9/15/13
f 5/10/14 9/15/14 10/16/14
f 6/11/15 10/16/15 11/17/15
f 21/37/16 20/35/16 14/23/16 13/20/16
f 19/33/17 17/29/17 16/26/17 15/24/17
f 20/34/18 19/32/18 15/25/18 14/22/18
f 18/31/19 21/36/19 13/21/19 12/18/19
f 12/19/20 13/21/20 14/23/20 15/25/20 16/26/20
f 17/28/21 18/30/21 12/19/21 16/27/21
f 8/13/22 7/12/22 18/30/22 17/28/22
f 7/12/23 11/17/23 21/36/23 18/31/23
f 10/16/24 9/15/24 19/32/24 20/34/24
f 9/15/25 8/14/25 17/29/25 19/33/25
f 11/17/26 10/16/26 20/35/26 21/37/26
o Cube.008
v 3.504575 1.856507 4.455587
v 3.470196 1.856507 4.521183
v 3.533283 1.876793 4.554247
v 3.567662 1.876793 4.488652
v 3.663995 1.214376 4.530066
v 3.621598 1.233516 4.606126
v 3.699023 1.229925 4.650188
v 3.741421 1.210785 4.574128
v 3.341641 0.690960 4.609852
v 3.267259 0.713320 4.727353
v 3.376077 0.668535 4.804760
v 3.450459 0.646176 4.687260
v 3.214876 -0.018126 4.407273
v 3.130083 -0.031167 4.518983
v 3.242479 -0.046036 4.602561
v 3.327271 -0.032995 4.490851
v 3.224939 -0.113315 4.406199
v 3.140011 -0.123307 4.518121
v 3.251166 -0.110230 4.603635
v 3.336094 -0.100238 4.491714
v 3.642862 1.296471 4.520682
v 3.602412 1.296471 4.597861
v 3.676639 1.320339 4.636765
v 3.717090 1.320339 4.559586
v 3.623932 1.373137 4.511771
v 3.584312 1.373137 4.587365
v 3.657015 1.396514 4.625469
v 3.696634 1.396514 4.549875
v 3.605823 1.446473 4.503247
v 3.566999 1.446473 4.577323
v 3.638242 1.469382 4.614663
v 3.677066 1.469382 4.540586
v 3.588228 1.517728 4.494965
v 3.550177 1.517728 4.567567
v 3.620003 1.540181 4.604164
v 3.658054 1.540181 4.531561
v 3.571006 1.587474 4.486858
v 3.533711 1.587474 4.558018
v 3.602149 1.609481 4.593887
v 3.639445 1.609481 4.522727
v 3.554075 1.656041 4.478889
v 3.517523 1.656041 4.548630
v 3.584598 1.677608 4.583785
v 3.621150 1.677608 4.514043
v 3.537383 1.723642 4.471031
v 3.501564 1.723642 4.539374
v 3.567293 1.744777 4.573824
v 3.603113 1.744777 4.505481
v 3.520892 1.790427 4.463268
v 3.485797 1.790427 4.530231
v 3.550198 1.811135 4.563983
v 3.585293 1.811135 4.497022
v 3.410379 0.800128 4.592195
v 3.358275 0.853797 4.697148
v 3.456758 0.810553 4.768153
v 3.508862 0.756885 4.663199
v 3.468882 0.896088 4.577762
v 3.420460 0.945963 4.675297
v 3.511981 0.905777 4.741282
v 3.560403 0.855902 4.643748
v 3.522005 0.983225 4.564657
v 3.476928 1.029655 4.655455
v 3.562128 0.992244 4.716883
v 3.607204 0.945815 4.626085
v 3.571911 1.065086 4.552345
v 3.529976 1.108279 4.636814
v 3.609237 1.073476 4.693960
v 3.651172 1.030282 4.609491
v 3.619554 1.143233 4.540592
v 3.580619 1.183337 4.619019
v 3.654210 1.151024 4.672078
v 3.693146 1.110920 4.593651
v 3.238151 0.115651 4.444183
v 3.153048 0.099631 4.555268
v 3.262597 0.057463 4.633114
v 3.347700 0.073483 4.522029
v 3.259848 0.234289 4.477915
v 3.174745 0.218269 4.589000
v 3.284294 0.176101 4.666845
v 3.369397 0.192121 4.555760
v 3.281545 0.352927 4.511646
v 3.196442 0.336908 4.622731
v 3.305991 0.294739 4.700577
v 3.391094 0.310759 4.589492
v 3.303242 0.471566 4.545378
v 3.218139 0.455546 4.656463
v 3.327688 0.413378 4.734308
v 3.412791 0.429398 4.623224
v 3.324939 0.590204 4.579110
v 3.239836 0.574184 4.690194
v 3.349385 0.532016 4.768040
v 3.434488 0.548036 4.656955
vn -0.2426 0.9618 -0.1272
vn 0.1168 -0.9932 -0.0000
vn -0.8565 -0.2900 -0.4269
vn -0.4793 -0.0058 0.8776
vn 0.8622 0.2620 0.4334
vn 0.4795 0.0042 -0.8775
vn -0.8545 -0.2631 -0.4479
vn -0.4669 0.0108 0.8842
vn 0.8491 0.2847 0.4450
vn 0.4615 0.0108 -0.8871
vn -0.7466 0.3720 -0.5516
vn -0.3963 0.4324 0.8099
vn 0.7820 -0.2991 0.5469
vn 0.4172 -0.3964 -0.8178
vn -0.7433 0.3693 -0.5578
vn -0.3837 0.4501 0.8063
vn 0.7837 -0.3013 0.5431
vn 0.4242 -0.3821 -0.8210
vn -0.7323 0.4108 -0.5431
vn -0.3938 0.4740 0.7876
vn 0.7958 -0.2915 0.5308
vn 0.4350 -0.3793 -0.8166
vn -0.7789 0.2900 -0.5561
vn -0.6034 -0.1142 0.7892
vn 0.7748 -0.3114 0.5502
vn 0.6033 0.1139 -0.7893
vn -0.7778 0.2994 -0.5527
vn -0.6042 -0.1137 0.7887
vn 0.7778 -0.2994 0.5527
vn 0.6042 0.1137 -0.7887
vn -0.7786 0.2993 -0.5515
vn -0.6016 -0.0945 0.7932
vn 0.7787 -0.2991 0.5516
vn 0.6100 0.1392 -0.7801
vn -0.7903 -0.0781 -0.6078
vn -0.6021 -0.0706 0.7953
vn 0.7857 0.1136 0.6080
vn 0.6021 0.0710 -0.7953
s 0
usemtl LP_bark.004
f 22//27 23//27 24//27 25//27
f 41//28 40//28 39//28 38//28
f 26//29 27//29 43//29 42//29
f 27//30 28//30 44//30 43//30
f 28//31 29//31 45//31 44//31
f 29//32 26//32 42//32 45//32
f 42//33 43//33 47//33 46//33
f 43//34 44//34 48//34 47//34
f 44//35 45//35 49//35 48//35
f 45//36 42//36 46//36 49//36
f 46//33 47//33 51//33 50//33
f 47//34 48//34 52//34 51//34
f 48//35 49//35 53//35 52//35
f 49//36 46//36 50//36 53//36
f 50//33 51//33 55//33 54//33
f 51//34 52//34 56//34 55//34
f 52//35 53//35 57//35 56//35
f 53//36 50//36 54//36 57//36
f 54//33 55//33 59//33 58//33
f 55//34 56//34 60//34 59//34
f 56//35 57//35 61//35 60//35
f 57//36 54//36 58//36 61//36
f 58//33 59//33 63//33 62//33
f 59//34 60//34 64//34 63//34
f 60//35 61//35 65//35 64//35
f 61//36 58//36 62//36 65//36
f 62//33 63//33 67//33 66//33
f 63//34 64//34 68//34 67//34
f 64//35 65//35 69//35 68//35
f 65//36 62//36 66//36 69//36
f 66//33 67//33 71//33 70//33
f 67//34 68//34 72//34 71//34
f 68//35 69//35 73//35 72//35
f 69//36 66//36 70//36 73//36
f 70//33 71//33 23//33 22//33
f 71//34 72//34 24//34 23//34
f 72//35 73//35 25//35 24//35
f 73//36 70//36 22//36 25//36
f 30//37 31//37 75//37 74//37
f 31//38 32//38 76//38 75//38
f 32//39 33//39 77//39 76//39
f 33//40 30//40 74//40 77//40
f 74//41 75//41 79//41 78//41
f 75//42 76//42 80//42 79//42
f 76//43 77//43 81//43 80//43
f 77//44 74//44 78//44 81//44
f 78//41 79//41 83//41 82//41
f 79//42 80//42 84//42 83//42
f 80//43 81//43 85//43 84//43
f 81//44 78//44 82//44 85//44
f 82//41 83//41 87//41 86//41
f 83//42 84//42 88//42 87//42
f 84//43 85//43 89//43 88//43
f 85//44 82//44 86//44 89//44
f 86//41 87//41 91//41 90//41
f 87//42 88//42 92//42 91//42
f 88//43 89//43 93//43 92//43
f 89//44 86//44 90//44 93//44
f 90//45 91//45 27//45 26//45
f 91//46 92//46 28//46 27//46
f 92//47 93//47 29//47 28//47
f 93//48 90//48 26//48 29//48
f 34//49 35//49 95//49 94//49
f 35//50 36//50 96//50 95//50
f 36//51 37//51 97//51 96//51
f 37//52 34//52 94//52 97//52
f 94//53 95//53 99//53 98//53
f 95//54 96//54 100//54 99//54
f 96//55 97//55 101//55 100//55
f 97//56 94//56 98//56 101//56
f 98//53 99//53 103//53 102//53
f 99//54 100//54 104//54 103//54
f 100//55 101//55 105//55 104//55
f 101//56 98//56 102//56 105//56
f 102//53 103//53 107//53 106//53
f 103//54 104//54 108//54 107//54
f 104//55 105//55 109//55 108//55
f 105//56 102//56 106//56 109//56
f 106//53 107//53 111//53 110//53
f 107//54 108//54 112//54 111//54
f 108//55 109//55 113//55 112//55
f 109//56 106//56 110//56 113//56
f 110//57 111//57 31//57 30//57
f 111//58 112//58 32//58 31//58
f 112//59 113//59 33//59 32//59
f 113//60 110//60 30//60 33//60
f 38//61 39//61 35//61 34//61
f 39//62 40//62 36//62 35//62
f 40//63 41//63 37//63 36//63
f 41//64 38//64 34//64 37//64
o Cube.007
v 3.246158 0.004190 4.706375
v 3.245504 -0.009143 4.532148
v 3.418788 -0.031606 4.533216
v 3.419442 -0.018274 4.707444
v 2.846653 1.495631 4.612663
v 2.844214 1.492061 4.520889
v 2.935397 1.502958 4.518043
v 2.937836 1.506528 4.609817
v 3.464930 0.636622 4.584465
v 3.462964 0.628325 4.450204
v 3.595371 0.651890 4.446809
v 3.597337 0.660188 4.581069
v 3.247491 -0.091441 4.707165
v 3.247490 -0.091441 4.532427
v 3.422143 -0.085983 4.532426
v 3.422143 -0.085983 4.707164
v 2.926594 1.699954 4.589711
v 2.923330 1.690587 4.498372
v 3.007817 1.654494 4.499054
v 3.011081 1.663862 4.590393
v 3.389963 0.727632 4.588695
v 3.383506 0.730259 4.460498
v 3.486198 0.807228 4.456903
v 3.492656 0.804601 4.585099
v 3.318879 0.826678 4.591868
v 3.312667 0.829205 4.468531
v 3.411467 0.903257 4.465072
v 3.417680 0.900730 4.588409
v 3.253475 0.917810 4.594789
v 3.247488 0.920246 4.475922
v 3.342706 0.991614 4.472588
v 3.348694 0.989178 4.591455
v 3.191506 1.004156 4.597556
v 3.185732 1.006505 4.482924
v 3.277558 1.075330 4.479709
v 3.283332 1.072981 4.594341
v 3.131972 1.087108 4.600214
v 3.126403 1.089374 4.489651
v 3.214969 1.155756 4.486550
v 3.220538 1.153490 4.597113
v 3.074309 1.167453 4.602788
v 3.068939 1.169638 4.496167
v 3.154348 1.233654 4.493177
v 3.159719 1.231469 4.599798
v 3.018158 1.245692 4.605296
v 3.012980 1.247799 4.502512
v 3.095315 1.309510 4.499629
v 3.100493 1.307404 4.602413
v 2.963268 1.322174 4.607747
v 2.958280 1.324203 4.508715
v 3.037610 1.383662 4.505938
v 3.042598 1.381633 4.604969
v 2.909459 1.397150 4.610149
v 2.904656 1.399104 4.514795
v 2.981039 1.456354 4.512121
v 2.985842 1.454400 4.607475
v 3.302564 0.180529 4.674295
v 3.299330 0.155674 4.511149
v 3.457537 0.108777 4.515157
v 3.460772 0.133632 4.678304
v 3.346695 0.312833 4.649119
v 3.343621 0.289212 4.494072
v 3.493975 0.244643 4.497881
v 3.497049 0.268264 4.652928
v 3.388240 0.437386 4.625418
v 3.385318 0.414926 4.477995
v 3.528278 0.372549 4.481616
v 3.531200 0.395008 4.629040
v 3.428191 0.557158 4.602627
v 3.425414 0.535815 4.462535
v 3.561264 0.495546 4.465977
v 3.564042 0.516888 4.606069
v 2.875807 1.581334 4.603691
v 2.872543 1.571967 4.512352
v 2.957030 1.535874 4.513034
v 2.960294 1.545242 4.604373
v 2.901201 1.640644 4.596701
v 2.897936 1.631277 4.505363
v 2.982423 1.595184 4.506044
v 2.985687 1.604552 4.597383
vn 0.0312 -0.9995 -0.0000
vn 0.3913 0.9139 -0.1077
vn -0.7787 -0.6262 0.0385
vn -0.0483 0.0436 -0.9979
vn 0.8126 0.5816 -0.0386
vn 0.0337 -0.0093 0.9994
vn -0.8116 -0.5834 0.0289
vn -0.0622 0.0364 -0.9974
vn 0.7878 0.6154 -0.0271
vn 0.0384 -0.0045 0.9993
vn -0.8395 -0.5421 0.0372
vn -0.0518 0.0465 -0.9976
vn 0.7237 0.6893 -0.0340
vn 0.0354 -0.0062 0.9994
vn -0.9524 0.3041 -0.0234
vn -0.0107 -0.1237 -0.9923
vn 0.9651 -0.2614 0.0185
vn 0.0220 0.1770 0.9840
vn -0.9499 0.3114 -0.0286
vn -0.0114 -0.1231 -0.9923
vn 0.9663 -0.2566 0.0199
vn 0.0278 0.1779 0.9837
vn -0.9194 0.3925 -0.0265
vn -0.0075 -0.1234 -0.9923
vn 0.9758 -0.2185 0.0067
vn 0.0115 0.1867 0.9823
vn -0.9998 -0.0186 0.0026
vn 0.0033 0.0039 -1.0000
vn 0.9988 0.0496 -0.0038
vn -0.0029 0.0031 1.0000
vn -0.9445 0.3285 0.0062
vn -0.0276 -0.1071 -0.9939
vn 0.8522 -0.5231 0.0104
vn 0.0272 0.1039 0.9942
vn -0.9196 0.3928 -0.0074
vn -0.0355 -0.1020 -0.9942
vn 0.9196 -0.3928 0.0074
vn 0.0355 0.1020 0.9942
s 0
usemtl LP_bark.004
f 126//65 127//65 128//65 129//65
f 133//66 132//66 131//66 130//66
f 134//67 135//67 123//67 122//67
f 135//68 136//68 124//68 123//68
f 136//69 137//69 125//69 124//69
f 137//70 134//70 122//70 125//70
f 138//71 139//71 135//71 134//71
f 139//72 140//72 136//72 135//72
f 140//73 141//73 137//73 136//73
f 141//74 138//74 134//74 137//74
f 142//71 143//71 139//71 138//71
f 143//72 144//72 140//72 139//72
f 144//73 145//73 141//73 140//73
f 145//74 142//74 138//74 141//74
f 146//71 147//71 143//71 142//71
f 147//72 148//72 144//72 143//72
f 148//73 149//73 145//73 144//73
f 149//74 146//74 142//74 145//74
f 150//71 151//71 147//71 146//71
f 151//72 152//72 148//72 147//72
f 152//73 153//73 149//73 148//73
f 153//74 150//74 146//74 149//74
f 154//71 155//71 151//71 150//71
f 155//72 156//72 152//72 151//72
f 156//73 157//73 153//73 152//73
f 157//74 154//74 150//74 153//74
f 158//71 159//71 155//71 154//71
f 159//72 160//72 156//72 155//72
f 160//73 161//73 157//73 156//73
f 161//74 158//74 154//74 157//74
f 162//71 163//71 159//71 158//71
f 163//72 164//72 160//72 159//72
f 164//73 165//73 161//73 160//73
f 165//74 162//74 158//74 161//74
f 166//71 167//71 163//71 162//71
f 167//72 168//72 164//72 163//72
f 168//73 169//73 165//73 164//73
f 169//74 166//74 162//74 165//74
f 118//75 119//75 167//75 166//75
f 119//76 120//76 168//76 167//76
f 120//77 121//77 169//77 168//77
f 121//78 118//78 166//78 169//78
f 170//79 171//79 115//79 114//79
f 171//80 172//80 116//80 115//80
f 172//81 173//81 117//81 116//81
f 173//82 170//82 114//82 117//82
f 174//83 175//83 171//83 170//83
f 175//84 176//84 172//84 171//84
f 176//85 177//85 173//85 172//85
f 177//86 174//86 170//86 173//86
f 178//83 179//83 175//83 174//83
f 179//84 180//84 176//84 175//84
f 180//85 181//85 177//85 176//85
f 181//86 178//86 174//86 177//86
f 182//83 183//83 179//83 178//83
f 183//84 184//84 180//84 179//84
f 184//85 185//85 181//85 180//85
f 185//86 182//86 178//86 181//86
f 122//87 123//87 183//87 182//87
f 123//88 124//88 184//88 183//88
f 124//89 125//89 185//89 184//89
f 125//90 122//90 182//90 185//90
f 114//91 115//91 127//91 126//91
f 115//92 116//92 128//92 127//92
f 116//93 117//93 129//93 128//93
f 117//94 114//94 126//94 129//94
f 186//95 187//95 119//95 118//95
f 187//96 188//96 120//96 119//96
f 188//97 189//97 121//97 120//97
f 189//98 186//98 118//98 121//98
f 190//99 191//99 187//99 186//99
f 191//100 192//100 188//100 187//100
f 192//101 193//101 189//101 188//101
f 193//102 190//102 186//102 189//102
f 130//99 131//99 191//99 190//99
f 131//100 132//100 192//100 191//100
f 132//101 133//101 193//101 192//101
f 133//102 130//102 190//102 193//102
