# Blender 3.3.1
# www.blender.org
mtllib CastleWall.mtl
o Cube
v -60.000000 -1.441338 15.000000
v -60.000000 58.558662 15.000000
v -60.000000 -1.441338 -15.000000
v -60.000000 58.558662 -15.000000
v 60.000000 -1.441338 15.000000
v 60.000000 58.558662 15.000000
v 60.000000 -1.441338 -15.000000
v 60.000000 58.558662 -15.000000
v -60.000000 58.558662 7.000000
v -60.000000 58.558662 -7.000000
v 60.000000 58.558662 -7.000000
v 60.000000 58.558662 7.000000
v 42.857143 58.558662 15.000000
v 25.714289 58.558662 15.000000
v 8.571429 58.558662 15.000000
v -8.571427 58.558662 15.000000
v -25.714285 58.558662 15.000000
v -42.857143 58.558662 15.000000
v -42.857143 58.558662 7.000000
v -25.714285 58.558662 7.000000
v -8.571427 58.558662 7.000000
v 8.571429 58.558662 7.000000
v 25.714289 58.558662 7.000000
v 42.857143 58.558662 7.000000
v -42.857143 58.558662 -15.000000
v -25.714285 58.558662 -15.000000
v -8.571427 58.558662 -15.000000
v 8.571429 58.558662 -15.000000
v 25.714289 58.558662 -15.000000
v 42.857143 58.558662 -15.000000
v -42.857143 58.558662 -7.000000
v -25.714285 58.558662 -7.000000
v -8.571427 58.558662 -7.000000
v 8.571429 58.558662 -7.000000
v 25.714289 58.558662 -7.000000
v 42.857143 58.558662 -7.000000
v -57.988621 72.331467 -9.011378
v -57.988621 72.331467 -12.988622
v 44.868523 72.331467 -12.988622
v 57.988621 72.331467 -12.988622
v 57.988621 72.331467 9.011378
v 57.988621 72.331467 12.988622
v -44.868523 72.331467 12.988622
v -57.988621 72.331467 12.988622
v -57.988621 72.331467 9.011378
v 57.988621 72.331467 -9.011378
v 44.868523 72.331467 -9.011378
v 44.868523 72.331467 9.011378
v 44.868523 72.331467 12.988622
v 23.702911 72.331467 12.988622
v 10.582808 72.331467 12.988622
v -10.582806 72.331467 12.988622
v -23.702908 72.331467 12.988622
v -44.868523 72.331467 9.011378
v -23.702908 72.331467 9.011378
v -10.582806 72.331467 9.011378
v 10.582808 72.331467 9.011378
v 23.702911 72.331467 9.011378
v -44.868523 72.331467 -12.988622
v -23.702908 72.331467 -12.988622
v -10.582806 72.331467 -12.988622
v 10.582808 72.331467 -12.988622
v 23.702911 72.331467 -12.988622
v -44.868523 72.331467 -9.011378
v -23.702908 72.331467 -9.011378
v -10.582806 72.331467 -9.011378
v 10.582808 72.331467 -9.011378
v 23.702911 72.331467 -9.011378
v 42.857143 60.898018 15.000000
v 25.714289 60.898018 15.000000
v 8.571429 60.898018 15.000000
v -8.571427 60.898018 15.000000
v -25.714285 60.898018 15.000000
v -42.857143 60.898018 15.000000
v -42.857143 60.898018 7.000000
v -25.714285 60.898018 7.000000
v -8.571427 60.898018 7.000000
v 8.571429 60.898018 7.000000
v 25.714289 60.898018 7.000000
v 42.857143 60.898018 7.000000
v -42.857143 60.898018 -15.000000
v -25.714285 60.898018 -15.000000
v -8.571427 60.898018 -15.000000
v 8.571429 60.898018 -15.000000
v 25.714289 60.898018 -15.000000
v 42.857143 60.898018 -15.000000
v -42.857143 60.898018 -7.000000
v -25.714285 60.898018 -7.000000
v -8.571427 60.898018 -7.000000
v 8.571429 60.898018 -7.000000
v 25.714289 60.898018 -7.000000
v 42.857143 60.898018 -7.000000
v -60.000000 68.346329 -7.000000
v -60.000000 68.346329 -15.000000
v 42.857143 68.346329 -15.000000
v 60.000000 68.346329 -15.000000
v 60.000000 68.346329 7.000000
v 60.000000 68.346329 15.000000
v -42.857143 68.346329 15.000000
v -60.000000 68.346329 15.000000
v -60.000000 68.346329 7.000000
v 60.000000 68.346329 -7.000000
v 42.857143 68.346329 -7.000000
v 42.857143 68.346329 7.000000
v 42.857143 68.346329 15.000000
v 25.714289 68.346329 15.000000
v 8.571429 68.346329 15.000000
v -8.571427 68.346329 15.000000
v -25.714285 68.346329 15.000000
v -42.857143 68.346329 7.000000
v -25.714285 68.346329 7.000000
v -8.571427 68.346329 7.000000
v 8.571429 68.346329 7.000000
v 25.714289 68.346329 7.000000
v -42.857143 68.346329 -15.000000
v -25.714285 68.346329 -15.000000
v -8.571427 68.346329 -15.000000
v 8.571429 68.346329 -15.000000
v 25.714289 68.346329 -15.000000
v -42.857143 68.346329 -7.000000
v -25.714285 68.346329 -7.000000
v -8.571427 68.346329 -7.000000
v 8.571429 68.346329 -7.000000
v 25.714289 68.346329 -7.000000
vn -1.0000 -0.0000 -0.0000
vn -0.0000 -0.0000 -1.0000
vn 1.0000 -0.0000 -0.0000
vn -0.0000 -0.0000 1.0000
vn -0.0000 -1.0000 -0.0000
vn -0.0000 1.0000 -0.0000
vn -0.8927 0.4506 -0.0000
vn -0.0000 0.4506 -0.8927
vn 0.8927 0.4506 -0.0000
vn -0.0000 0.4506 0.8927
vt 0.754970 0.895437
vt 0.448323 0.001209
vt 0.450741 0.001209
vt 0.754970 0.673089
vt 0.225975 0.001209
vt 0.076169 0.786533
vt 0.240709 0.897292
vt 0.866144 0.895437
vt 0.001209 0.001209
vt 0.561915 0.001209
vt 0.866144 0.673089
vt 0.223557 0.001209
vt 0.030855 0.888750
vt 0.359369 0.744525
vt 0.866144 0.670671
vt 0.448323 0.445905
vt 0.450741 0.445905
vt 0.866144 0.448323
vt 0.225975 0.445905
vt 0.114858 0.850061
vt 0.488264 0.881361
vt 0.001209 0.445905
vt 0.754970 0.670671
vt 0.561915 0.445905
vt 0.223557 0.445905
vt 0.754970 0.448323
vt 0.904833 0.873645
vt 0.753399 0.413748
vt 0.784617 0.673089
vt 0.846471 0.001209
vt 0.714710 0.350220
vt 0.270356 0.897292
vt 0.836498 0.673089
vt 0.794590 0.001209
vt 0.001209 0.888750
vt 0.885160 0.001209
vt 0.784617 0.448323
vt 0.794590 0.445905
vt 0.037480 0.850061
vt 0.904833 0.843999
vt 0.836498 0.448323
vt 0.151586 0.751004
vt 0.846471 0.445905
vt 0.458618 0.881361
vt 0.225975 0.382377
vt 0.033273 0.888750
vt 0.114858 0.786533
vt 0.454967 0.894902
vt 0.944481 0.444243
vt 0.225975 0.318849
vt 0.359369 0.906064
vt 0.395640 0.873999
vt 0.454967 0.831374
vt 0.463175 0.994513
vt 0.225975 0.255321
vt 0.975270 0.516485
vt 0.097402 0.888750
vt 0.395640 0.810471
vt 0.554666 0.954848
vt 0.225975 0.191793
vt 0.986471 0.259999
vt 0.868562 0.905709
vt 0.187857 0.816950
vt 0.618194 0.954848
vt 0.225975 0.128265
vt 0.561436 0.881361
vt 0.187857 0.753422
vt 0.976545 0.444243
vt 0.457175 0.942693
vt 0.225975 0.064737
vt 0.520329 0.881361
vt 0.076169 0.850061
vt 0.986325 0.811412
vt 0.393647 0.942693
vt 0.846471 0.064737
vt 0.839900 0.951321
vt 0.490682 0.881361
vt 0.714710 0.413748
vt 0.986325 0.841059
vt 0.846471 0.128265
vt 0.776372 0.951321
vt 0.591082 0.881361
vt 0.848889 0.067155
vt 0.946899 0.444243
vt 0.846471 0.191793
vt 0.986471 0.289646
vt 0.868562 0.876063
vt 0.848889 0.130683
vt 0.932090 0.943096
vt 0.846471 0.255321
vt 0.627861 0.399749
vt 0.945624 0.516485
vt 0.127048 0.888750
vt 0.868562 0.943096
vt 0.846471 0.318849
vt 0.564333 0.399749
vt 0.359369 0.876417
vt 0.912417 0.435573
vt 0.463175 0.964867
vt 0.151586 0.687476
vt 0.062920 0.888750
vt 0.846471 0.382377
vt 0.848889 0.435573
vt 0.914835 0.444243
vt 0.223557 0.064737
vt 0.359369 0.808054
vt 0.668460 0.874736
vt 0.138253 0.852479
vt 0.453355 0.897320
vt 0.223557 0.128265
vt 0.848889 0.133101
vt 0.238291 0.897292
vt 0.138253 0.916007
vt 0.698533 0.938810
vt 0.223557 0.191793
vt 0.242536 0.945082
vt 0.629771 0.874736
vt 0.848889 0.196629
vt 0.789325 0.416166
vt 0.223557 0.255321
vt 0.693807 0.399749
vt 0.179008 0.945082
vt 0.094984 0.888750
vt 0.550376 0.973779
vt 0.223557 0.318849
vt 0.630279 0.399749
vt 0.878535 0.396884
vt 0.457175 0.953780
vt 0.951341 0.800325
vt 0.223557 0.382377
vt 0.032674 0.983931
vt 0.753399 0.350220
vt 0.559018 0.845089
vt 0.393647 0.953780
vt 0.794590 0.064737
vt 0.885160 0.064737
vt 0.668460 0.845089
vt 0.887578 0.187960
vt 0.453355 0.926967
vt 0.794590 0.128265
vt 0.395640 0.678580
vt 0.208645 0.897292
vt 0.951106 0.187960
vt 0.698533 0.909164
vt 0.794590 0.191793
vt 0.395640 0.742108
vt 0.629771 0.845089
vt 0.789325 0.445813
vt 0.101046 0.955468
vt 0.794590 0.255321
vt 0.187857 0.819368
vt 0.065338 0.888750
vt 0.550376 0.944132
vt 0.037518 0.955468
vt 0.794590 0.318849
vt 0.747785 0.799365
vt 0.187857 0.882896
vt 0.848889 0.396884
vt 0.980988 0.800325
vt 0.794590 0.382377
vt 0.037480 0.786533
vt 0.032674 0.954285
vt 0.747785 0.862893
vt 0.559018 0.874736
vt 0.122447 0.942216
vt 0.953524 0.189175
vt 0.880953 0.206500
vt 0.122447 0.927477
vt 0.953524 0.174436
vt 0.885105 0.719561
vt 0.242536 0.927925
vt 0.291134 0.836410
vt 0.678361 0.966325
vt 0.193916 0.927925
vt 0.291134 0.885031
vt 0.359369 0.965643
vt 0.791279 0.934164
vt 0.947420 0.542609
vt 0.329054 0.885031
vt 0.791279 0.948903
vt 0.947420 0.527870
vt 0.868562 0.570343
vt 0.740241 0.940810
vt 0.880953 0.387013
vt 0.947042 0.559934
vt 0.788861 0.940810
vt 0.880953 0.338392
vt 0.864253 0.905309
vt 0.788861 0.926071
vt 0.864253 0.920048
vt 0.348015 0.836410
vt 0.193916 0.942664
vt 0.359369 0.950904
vt 0.868562 0.504398
vt 0.242536 0.942664
vt 0.868562 0.455777
vt 0.678361 0.951586
vt 0.839900 0.934164
vt 0.329054 0.836410
vt 0.962166 0.497944
vt 0.839900 0.948903
vt 0.868562 0.521723
vt 0.962166 0.483205
vt 0.393647 0.940275
vt 0.868562 0.702235
vt 0.105905 0.952088
vt 0.442268 0.940275
vt 0.868562 0.653615
vt 0.756783 0.950681
vt 0.190275 0.808261
vt 0.427337 0.887449
vt 0.951341 0.818866
vt 0.190275 0.856881
vt 0.427337 0.838828
vt 0.539289 0.951586
vt 0.740241 0.926071
vt 0.348015 0.885031
vt 0.947042 0.574673
vt 0.205014 0.856881
vt 0.885105 0.785506
vt 0.539289 0.966325
vt 0.205014 0.808261
vt 0.885105 0.834127
vt 0.951341 0.833605
vt 0.442268 0.925536
vt 0.717737 0.836410
vt 0.756783 0.965420
vt 0.393647 0.925536
vt 0.717737 0.885031
vt 0.105905 0.966827
vt 0.073827 0.927477
vt 0.885105 0.768181
vt 0.955638 0.352174
vt 0.205014 0.907920
vt 0.310094 0.836410
vt 0.979063 0.967521
vt 0.205014 0.859299
vt 0.310094 0.885031
vt 0.151586 0.965607
vt 0.323212 0.923118
vt 0.736698 0.836410
vt 0.680779 0.951586
vt 0.274591 0.923118
vt 0.736698 0.885031
vt 0.943560 0.967521
vt 0.073827 0.942216
vt 0.880953 0.255121
vt 0.955638 0.337435
vt 0.190275 0.907920
vt 0.408377 0.838828
vt 0.979063 0.952782
vt 0.190275 0.859299
vt 0.408377 0.887449
vt 0.151586 0.950868
vt 0.323212 0.937857
vt 0.868562 0.587669
vt 0.680779 0.966325
vt 0.274591 0.937857
vt 0.868562 0.636289
vt 0.943560 0.952782
vt 0.878535 0.262575
vt 0.446298 0.894902
vt 0.944481 0.435573
vt 0.878535 0.199047
vt 0.446298 0.831374
vt 0.454506 0.994513
vt 0.975270 0.507816
vt 0.848889 0.264993
vt 0.554666 0.946179
vt 0.995141 0.259999
vt 0.848889 0.328521
vt 0.618194 0.946179
vt 0.208645 0.858603
vt 0.976545 0.435573
vt 0.457175 0.951362
vt 0.272173 0.858603
vt 0.994994 0.811412
vt 0.393647 0.951362
vt 0.839900 0.959990
vt 0.272173 0.828957
vt 0.994994 0.841059
vt 0.776372 0.959990
vt 0.208645 0.828957
vt 0.946899 0.435573
vt 0.995141 0.289646
vt 0.878535 0.328521
vt 0.932090 0.951765
vt 0.945624 0.507816
vt 0.878535 0.264993
vt 0.868562 0.951765
vt 0.848889 0.199047
vt 0.912417 0.444243
vt 0.454506 0.964867
vt 0.848889 0.262575
vt 0.848889 0.444243
vt 0.914835 0.435573
vt 0.778238 0.416166
vt 0.146923 0.852479
vt 0.444686 0.897320
vt 0.714710 0.416166
vt 0.146923 0.916007
vt 0.689864 0.938810
vt 0.242536 0.953751
vt 0.878535 0.394467
vt 0.780656 0.416166
vt 0.179008 0.953751
vt 0.878535 0.330938
vt 0.541707 0.973779
vt 0.117276 0.786533
vt 0.457175 0.962449
vt 0.951341 0.808994
vt 0.024005 0.983931
vt 0.117276 0.850061
vt 0.393647 0.962449
vt 0.778238 0.445813
vt 0.887578 0.196629
vt 0.444686 0.926967
vt 0.714710 0.445813
vt 0.951106 0.196629
vt 0.689864 0.909164
vt 0.848889 0.394467
vt 0.780656 0.445813
vt 0.101046 0.946799
vt 0.848889 0.330938
vt 0.541707 0.944132
vt 0.037518 0.946799
vt 0.739115 0.799365
vt 0.146923 0.786533
vt 0.980988 0.808994
vt 0.024005 0.954285
vt 0.739115 0.862893
vt 0.146923 0.850061
vt 0.001209 0.852479
vt 0.848889 0.001209
vt 0.970066 0.196629
vt 0.897496 0.199047
vt 0.030855 0.852479
vt 0.395640 0.744525
vt 0.970066 0.166982
vt 0.868562 0.712107
vt 0.789671 0.350220
vt 0.522747 0.845089
vt 0.274591 0.828957
vt 0.661819 0.973779
vt 0.868562 0.873645
vt 0.789671 0.413748
vt 0.274591 0.892485
vt 0.375911 0.973097
vt 0.187857 0.751004
vt 0.458618 0.845089
vt 0.963963 0.550062
vt 0.312512 0.892485
vt 0.078587 0.850061
vt 0.488264 0.845089
vt 0.963963 0.520416
vt 0.885105 0.577797
vt 0.520329 0.845089
vt 0.039898 0.850061
vt 0.897496 0.394467
vt 0.963585 0.552480
vt 0.039898 0.786533
vt 0.240709 0.861021
vt 0.897496 0.330938
vt 0.847710 0.897855
vt 0.750981 0.350220
vt 0.270356 0.861021
vt 0.847710 0.927502
vt 0.331472 0.828957
vt 0.001209 0.850061
vt 0.868562 0.843999
vt 0.375911 0.943451
vt 0.885105 0.511851
vt 0.001209 0.786533
vt 0.522747 0.874736
vt 0.885105 0.448323
vt 0.661819 0.944132
vt 0.187857 0.687476
vt 0.062920 0.852479
vt 0.312512 0.828957
vt 0.945624 0.505398
vt 0.033273 0.852479
vt 0.078587 0.786533
vt 0.885105 0.514269
vt 0.945624 0.475751
vt 0.395640 0.906064
vt 0.359369 0.873999
vt 0.885105 0.709689
vt 0.122447 0.944634
vt 0.097402 0.852479
vt 0.359369 0.810471
vt 0.885105 0.646161
vt 0.740241 0.943228
vt 0.904833 0.905709
vt 0.151586 0.816950
vt 0.443880 0.894903
vt 0.967884 0.811412
vt 0.561436 0.845089
vt 0.151586 0.753422
vt 0.443880 0.831374
vt 0.522747 0.944132
vt 0.490682 0.845089
vt 0.750981 0.413748
vt 0.331472 0.892485
vt 0.963585 0.582127
vt 0.591082 0.845089
vt 0.885160 0.067155
vt 0.868562 0.778053
vt 0.522747 0.973779
vt 0.904833 0.876063
vt 0.885160 0.130683
vt 0.868562 0.841581
vt 0.967884 0.841059
vt 0.627861 0.436020
vt 0.127048 0.852479
vt 0.701195 0.828957
vt 0.740241 0.972874
vt 0.564333 0.436020
vt 0.395640 0.876417
vt 0.701195 0.892485
vt 0.122447 0.974280
vt 0.395640 0.808054
vt 0.632189 0.874736
vt 0.868562 0.775635
vt 0.972181 0.359627
vt 0.885160 0.133101
vt 0.238291 0.861021
vt 0.293551 0.828957
vt 0.962521 0.974975
vt 0.593500 0.874736
vt 0.885160 0.196629
vt 0.293551 0.892485
vt 0.168128 0.973061
vt 0.693807 0.436020
vt 0.094984 0.852479
vt 0.720155 0.828957
vt 0.697322 0.944132
vt 0.630279 0.436020
vt 0.878535 0.433156
vt 0.720155 0.892485
vt 0.960103 0.974975
vt 0.848889 0.064737
vt 0.632189 0.845089
vt 0.897496 0.262575
vt 0.972181 0.329981
vt 0.359369 0.678580
vt 0.208645 0.861021
vt 0.424919 0.831374
vt 0.962521 0.945328
vt 0.359369 0.742108
vt 0.593500 0.845089
vt 0.424919 0.894903
vt 0.168128 0.943415
vt 0.151586 0.819368
vt 0.065338 0.852479
vt 0.885105 0.580215
vt 0.697322 0.973779
vt 0.151586 0.882896
vt 0.848889 0.433156
vt 0.885105 0.643743
vt 0.960103 0.945328
s 0
usemtl CastleBricks
f 1/1/1 2/4/1 9/29/1 10/33/1 4/11/1 3/8/1
f 3/9/2 4/12/2 25/105/2 26/110/2 27/115/2 28/120/2 29/125/2 30/130/2 8/25/2 7/22/2
f 7/23/3 8/26/3 11/37/3 12/41/3 6/18/3 5/15/3
f 5/16/4 6/19/4 13/45/4 14/50/4 15/55/4 16/60/4 17/65/4 18/70/4 2/5/4 1/2/4
f 3/10/5 7/24/5 5/17/5 1/3/5
f 12/42/2 24/100/2 104/377/2 97/349/2
f 24/101/1 13/46/1 105/381/1 104/378/1
f 36/161/4 11/39/4 102/369/4 103/373/4
f 36/162/3 30/131/3 86/312/3 92/330/3
f 4/13/1 10/35/1 93/333/1 94/337/1
f 21/86/1 16/61/1 72/270/1 77/285/1
f 10/36/4 31/136/4 120/441/4 93/334/4
f 20/81/2 19/76/2 75/279/2 76/282/2
f 23/96/2 22/91/2 113/413/2 114/417/2
f 35/156/4 36/163/4 92/331/4 91/327/4
f 11/40/3 8/27/3 96/345/3 102/370/3
f 15/56/3 22/92/3 78/288/3 71/267/3
f 29/126/2 28/121/2 118/433/2 119/437/2
f 28/122/2 27/116/2 83/303/2 84/306/2
f 54/216/6 45/189/6 44/186/6 43/183/6
f 59/231/6 38/168/6 37/165/6 64/246/6
f 41/177/6 48/198/6 49/201/6 42/180/6
f 58/228/6 57/225/6 51/207/6 50/204/6
f 56/222/6 55/219/6 53/213/6 52/210/6
f 40/174/6 39/171/6 47/195/6 46/192/6
f 63/243/6 62/240/6 67/255/6 68/258/6
f 61/237/6 60/234/6 65/249/6 66/252/6
f 32/141/4 33/146/4 122/449/4 121/445/4
f 14/51/3 23/97/3 114/418/3 106/385/3
f 13/47/4 6/20/4 98/353/4 105/382/4
f 8/28/2 30/132/2 95/341/2 96/346/2
f 22/93/1 15/57/1 107/389/1 113/414/1
f 34/151/4 35/157/4 124/457/4 123/453/4
f 16/62/3 21/87/3 112/409/3 108/393/3
f 15/58/4 14/52/4 106/386/4 107/390/4
f 20/82/1 17/66/1 109/397/1 111/405/1
f 30/133/1 36/164/1 103/374/1 95/342/1
f 6/21/3 12/44/3 97/350/3 98/354/3
f 18/71/3 19/77/3 110/401/3 99/357/3
f 17/67/4 16/63/4 108/394/4 109/398/4
f 35/158/3 29/127/3 119/438/3 124/458/3
f 25/106/2 4/14/2 94/338/2 115/421/2
f 28/123/1 34/152/1 123/454/1 118/434/1
f 19/78/2 9/31/2 101/365/2 110/402/2
f 33/147/3 27/117/3 117/429/3 122/450/3
f 2/6/4 18/72/4 99/358/4 100/361/4
f 27/118/2 26/111/2 116/425/2 117/430/2
f 26/112/1 32/142/1 121/446/1 116/426/1
f 9/32/1 2/7/1 100/362/1 101/366/1
f 21/88/2 20/83/2 111/406/2 112/410/2
f 31/137/3 25/107/3 115/422/3 120/442/3
f 80/294/6 79/291/6 70/264/6 69/261/6
f 78/289/6 77/286/6 72/271/6 71/268/6
f 76/283/6 75/280/6 74/276/6 73/273/6
f 86/313/6 85/309/6 91/328/6 92/332/6
f 84/307/6 83/304/6 89/321/6 90/324/6
f 82/300/6 81/297/6 87/315/6 88/318/6
f 30/134/2 29/128/2 85/310/2 86/314/2
f 14/53/4 13/48/4 69/262/4 70/265/4
f 17/68/3 20/84/3 76/284/3 73/274/3
f 29/129/1 35/159/1 91/329/1 85/311/1
f 22/94/2 21/89/2 77/287/2 78/290/2
f 19/79/1 18/73/1 74/277/1 75/281/1
f 34/153/3 28/124/3 84/308/3 90/325/3
f 31/138/4 32/143/4 88/319/4 87/316/4
f 16/64/4 15/59/4 71/269/4 72/272/4
f 27/119/1 33/148/1 89/322/1 83/305/1
f 24/103/2 23/98/2 79/292/2 80/295/2
f 26/113/2 25/108/2 81/298/2 82/301/2
f 32/144/3 26/114/3 82/302/3 88/320/3
f 13/49/3 24/104/3 80/296/3 69/263/3
f 33/149/4 34/154/4 90/326/4 89/323/4
f 18/74/4 17/69/4 73/275/4 74/278/4
f 25/109/1 31/139/1 87/317/1 81/299/1
f 23/99/1 14/54/1 70/266/1 79/293/1
f 37/166/7 38/169/7 94/339/7 93/335/7
f 39/172/8 40/175/8 96/347/8 95/343/8
f 41/178/9 42/181/9 98/355/9 97/351/9
f 43/184/10 44/187/10 100/363/10 99/359/10
f 44/188/7 45/190/7 101/367/7 100/364/7
f 40/176/9 46/193/9 102/371/9 96/348/9
f 46/194/10 47/196/10 103/375/10 102/372/10
f 48/199/8 41/179/8 97/352/8 104/379/8
f 42/182/10 49/202/10 105/383/10 98/356/10
f 50/205/10 51/208/10 107/391/10 106/387/10
f 52/211/10 53/214/10 109/399/10 108/395/10
f 45/191/8 54/217/8 110/403/8 101/368/8
f 55/220/8 56/223/8 112/411/8 111/407/8
f 57/226/8 58/229/8 114/419/8 113/415/8
f 49/203/7 48/200/7 104/380/7 105/384/7
f 58/230/9 50/206/9 106/388/9 114/420/9
f 51/209/7 57/227/7 113/416/7 107/392/7
f 56/224/9 52/212/9 108/396/9 112/412/9
f 53/215/7 55/221/7 111/408/7 109/400/7
f 54/218/9 43/185/9 99/360/9 110/404/9
f 38/170/8 59/232/8 115/423/8 94/340/8
f 60/235/8 61/238/8 117/431/8 116/427/8
f 62/241/8 63/244/8 119/439/8 118/435/8
f 64/247/10 37/167/10 93/336/10 120/443/10
f 66/253/10 65/250/10 121/447/10 122/451/10
f 68/259/10 67/256/10 123/455/10 124/459/10
f 47/197/7 39/173/7 95/344/7 103/376/7
f 63/245/9 68/260/9 124/460/9 119/440/9
f 67/257/7 62/242/7 118/436/7 123/456/7
f 61/239/9 66/254/9 122/452/9 117/432/9
f 65/251/7 60/236/7 116/428/7 121/448/7
f 59/233/9 64/248/9 120/444/9 115/424/9
usemtl BricksHighScale
f 11/38/6 36/160/6 35/155/6 34/150/6 33/145/6 32/140/6 31/135/6 10/34/6 9/30/6 19/75/6 20/80/6 21/85/6 22/90/6 23/95/6 24/102/6 12/43/6
